<svg width="230" height="89" viewBox="0 0 230 89" fill="none" xmlns="http://www.w3.org/2000/svg">
<path d="M22.761 21.7443H0V68.2663H22.761V21.7443Z" fill="#4CC0BA"/>
<path d="M22.761 68.2652H0V87.5242H22.761V68.2652Z" fill="#005189"/>
<path d="M126.304 18.8463L115.849 43.2823L115.874 43.3383L135.456 87.5243H159.055L126.304 18.8463Z" fill="#4CC0BA"/>
<path d="M74.575 87.5243H96.919L115.849 43.2823L106.176 21.4583L74.575 87.5243Z" fill="#71C4E7"/>
<path d="M124.393 62.5612H107.6L100.296 79.6333H131.959L124.393 62.5612Z" fill="#ABDCD3"/>
<path d="M117.631 0.65925C117.254 -0.21975 116.501 -0.21975 116.125 0.65925L106.176 21.4583L115.849 43.2823L126.304 18.8463L117.631 0.65925Z" fill="#005189"/>
<path d="M195.847 69.8593C187.311 69.8593 182.164 65.7173 178.021 60.5703L161.452 72.9973C166.724 80.0273 177.645 88.8133 196.851 88.8133V69.8392C196.522 69.8502 196.191 69.8593 195.847 69.8593Z" fill="#005189"/>
<path d="M197.354 20.0243C191.831 20.0243 189.068 22.5353 189.068 25.9243C189.068 29.1883 190.952 30.8203 195.093 32.2003L206.392 35.9663C223.464 41.6152 229.237 49.7743 229.237 61.8253C229.237 62.2513 229.201 62.6613 229.187 63.0803H206.642C206.642 59.4403 203.882 57.6823 198.232 55.7993L188.19 52.4103C175.764 48.2682 166.977 40.7363 166.977 26.6773C166.977 9.85625 180.911 1.19525 196.098 1.19525C196.522 1.19525 196.941 1.19925 197.355 1.20825L197.354 20.0243Z" fill="#71C4E7"/>
<path d="M229.186 63.0803H206.641C206.641 67.6083 203.016 69.6443 196.851 69.8393V88.8133C218.833 88.8133 228.666 78.1083 229.186 63.0803Z" fill="#4CC0BA"/>
<path d="M197.354 20.0243C204.131 20.0243 207.898 22.5353 211.413 26.1753L224.468 12.4933C219.588 6.75925 211.625 1.50025 197.354 1.20825V20.0243Z" fill="#ABDCD3"/>
<path d="M32.89 2.48523H22.76V21.7442H30.388C44.144 21.7442 52.648 30.8732 52.648 45.0052C52.648 59.1372 44.144 68.2662 30.388 68.2662H22.759V87.5252H32.889C57.4 87.5252 75.909 71.3932 75.909 45.0052C75.909 18.6172 57.402 2.48523 32.89 2.48523Z" fill="#71C4E7"/>
<path d="M22.761 2.48523H0V21.7442H22.761V2.48523Z" fill="#ABDCD3"/>
</svg>
